<?xml version="1.0" standalone="no"?><!DOCTYPE svg PUBLIC "-//W3C//DTD SVG 1.1//EN" "http://www.w3.org/Graphics/SVG/1.1/DTD/svg11.dtd" ><svg xmlns="http://www.w3.org/2000/svg"><metadata></metadata><defs><font id="EbenSorkin: Merriweather Light: 2015" horiz-adv-x="2200"><font-face font-family="Merriweather Light" font-weight="300" font-stretch="normal" units-per-em="2048" panose-1="2 6 5 3 5 4 6 3 7 4" ascent="2014" descent="-560" x-height="4" bbox="-42 -552 2065 1839" underline-thickness="96" underline-position="-122" unicode-range="U+0021-007a" /><missing-glyph horiz-adv-x="1770" d="M177 1416 l1416 0 l0 -1416 l-1416 0 l0 1416 ZM559 252 l324 353 l337 -353 l113 113 l-348 343 l348 334 l-119 116 l-328 -351 l-333 352 l-114 -116 l344 -338 l-343 -318 l119 -135 Z" /><glyph glyph-name="a" unicode="a" d="M104 299 q0 71 27.5 127 q27.5 56 75.5 98 q48 42 113.5 71.5 q65.5 29.5 142 48 q76.5 18.5 160 27.5 q83.5 9 168.5 11 l0 64 q0 76 -11.5 129.5 q-11.5 53.5 -39.5 87 q-28 33.5 -75.5 49 q-47.5 15.5 -119.5 15.5 q-60 0 -114.5 -12 q-54.5 -12 -101 -29 q-46.5 -17 -83.5 -36 q-37 -19 -61 -33 l-1 0 l-45 90 q9 9 32.5 24 q23.5 15 57 32 q33.5 17 75 34 q41.5 17 87.5 31 q46 14 94.5 23 q48.5 9 95.5 9 q104 0 175.5 -21.5 q71.5 -21.5 115.5 -69 q44 -47.5 63 -122.5 q19 -75 19 -183 l0 -675 l128 0 l0 -76 q-17 -5 -40.5 -10.5 q-23.5 -5.5 -49.5 -10 q-26 -4.5 -52.5 -8 q-26.5 -3.5 -49.5 -3.5 q-22 0 -38.5 2 q-16.5 2 -27 11 q-10.5 9 -15.5 26.5 q-5 17.5 -5 47.5 l0 75 q-19 -17 -53 -45 q-34 -28 -80 -55 q-46 -27 -103 -46.5 q-57 -19.5 -122 -19.5 q-68 0 -130 19 q-62 19 -109 58.5 q-47 39.5 -75 100 q-28 60.5 -28 144.5 ZM286 319 q0 -61 17 -103 q17 -42 47 -68 q30 -26 70 -37.5 q40 -11.5 87 -11.5 q31 0 67.5 10.5 q36.5 10.5 74.5 27.5 q38 17 74.5 39.5 q36.5 22.5 67.5 46.5 l0 363 q-128 -1 -223 -21 q-95 -20 -157.5 -55 q-62.5 -35 -93.5 -84 q-31 -49 -31 -107 Z" /><glyph glyph-name="b" unicode="b" d="M170 1549 l-176 18 l0 75 l299 35 l4 0 l38 -29 l0 -622 q27 25 63 50.5 q36 25.5 80 46 q44 20.5 96 33 q52 12.5 112 12.5 q86 0 166.5 -32 q80.5 -32 143 -99.5 q62.5 -67.5 100.5 -173.5 q38 -106 38 -253 q0 -131 -40.5 -246 q-40.5 -115 -116.5 -201 q-76 -86 -184 -136 q-108 -50 -243 -50 q-70 0 -134.5 8.5 q-64.5 8.5 -115.5 20.5 q-51 12 -85.5 25.5 q-34.5 13.5 -44.5 24.5 l0 1493 ZM335 154 q8 -18 30.5 -31.5 q22.5 -13.5 54 -23 q31.5 -9.5 69.5 -14 q38 -4.5 76 -4.5 q83 0 153.5 30.5 q70.5 30.5 122 92 q51.5 61.5 81.5 155.5 q30 94 32 222 q1 122 -25.5 209.5 q-26.5 87.5 -72.5 143.5 q-46 56 -107.5 82 q-61.5 26 -130.5 26 q-48 0 -91.5 -13 q-43.5 -13 -80.5 -33 q-37 -20 -65 -43 q-28 -23 -46 -42 l0 -757 Z" /><glyph glyph-name="c" unicode="c" d="M69 554 q-1 121 34 232.5 q35 111.5 106 196 q71 84.5 178 135 q107 50.5 251 50.5 q45 0 88 -6.5 q43 -6.5 81 -16 q38 -9.5 68.5 -20 q30.5 -10.5 50.5 -19.5 l-9 -292 l-102 0 l-43 195 q-4 18 -20.5 30 q-16.5 12 -40.5 19 q-24 7 -54 10 q-30 3 -61 3 q-79 0 -143.5 -31 q-64.5 -31 -110 -89.5 q-45.5 -58.5 -71 -142.5 q-25.5 -84 -25.5 -190 q-1 -134 27.5 -232 q28.5 -98 78 -162 q49.5 -64 117 -95.5 q67.5 -31.5 145.5 -31.5 q47 0 91.5 8.5 q44.5 8.5 83.5 22 q39 13.5 71 30 q32 16.5 55 33.5 l33 -68 q-28 -29 -69.5 -55 q-41.5 -26 -90.5 -46.5 q-49 -20.5 -103 -32.5 q-54 -12 -107 -12 q-125 0 -220 45 q-95 45 -159 123 q-64 78 -96.5 183 q-32.5 105 -33.5 226 Z" /><glyph glyph-name="d" unicode="d" d="M542 -23 q-87 0 -168 34 q-81 34 -143 103.5 q-62 69.5 -99.5 176 q-37.5 106.5 -37.5 250.5 q0 131 40.5 245.5 q40.5 114.5 116.5 199 q76 84.5 184 133.5 q108 49 243 49 q60 0 115.5 -7 q55.5 -7 101.5 -18 l0 406 l-213 19 l0 75 l335 34 l5 0 l38 -29 l0 -1556 l125 0 l0 -79 q-40 -10 -88 -21 q-48 -11 -107 -11 q-21 0 -37.5 2.5 q-16.5 2.5 -27 11.5 q-10.5 9 -16 26.5 q-5.5 17.5 -5.5 47.5 l0 73 q-27 -30 -64 -60 q-37 -30 -82.5 -53 q-45.5 -23 -99.5 -37.5 q-54 -14.5 -116 -14.5 ZM610 107 q48 0 92.5 12.5 q44.5 12.5 81.5 32 q37 19.5 65.5 43.5 q28.5 24 45.5 46 l0 755 q-9 14 -31.5 26.5 q-22.5 12.5 -54 21.5 q-31.5 9 -69.5 14.5 q-38 5.5 -77 5.5 q-82 0 -152.5 -28.5 q-70.5 -28.5 -122 -88.5 q-51.5 -60 -82 -153.5 q-30.5 -93.5 -31.5 -223.5 q-2 -125 24.5 -212.5 q26.5 -87.5 73 -143.5 q46.5 -56 108 -81.5 q61.5 -25.5 129.5 -25.5 Z" /><glyph glyph-name="e" unicode="e" d="M96 574 q0 132 39.5 241 q39.5 109 110 187.5 q70.5 78.5 166.5 122 q96 43.5 209 43.5 q182 0 283.5 -103 q101.5 -103 108.5 -303 q1 -59 -1 -102.5 q-2 -43.5 -10 -77.5 l-729 0 q0 -6 0 -12.5 q0 -6.5 1 -12.5 q3 -119 33.5 -206 q30.5 -87 80.5 -144 q50 -57 115.5 -85 q65.5 -28 139.5 -28 q44 0 89.5 8.5 q45.5 8.5 87.5 23 q42 14.5 78 33.5 q36 19 60 39 l33 -75 q-29 -30 -73.5 -56.5 q-44.5 -26.5 -97.5 -46.5 q-53 -20 -112 -31.5 q-59 -11.5 -118 -11.5 q-122 0 -214 44 q-92 44 -154.5 123 q-62.5 79 -94 189 q-31.5 110 -31.5 241 ZM830 678 q2 22 3.5 45 q1.5 23 1.5 46 q0 63 -14.5 116.5 q-14.5 53.5 -45.5 92.5 q-31 39 -79.5 61.5 q-48.5 22.5 -116.5 22.5 q-61 0 -113.5 -20 q-52.5 -20 -92.5 -65 q-40 -45 -65.5 -118.5 q-25.5 -73.5 -32.5 -180.5 l555 0 Z" /><glyph glyph-name="f" unicode="f" d="M91 88 l180 16 l0 910 l-208 0 l0 81 l208 40 l0 99 q0 95 37.5 177.5 q37.5 82.5 99 144 q61.5 61.5 141 97 q79.5 35.5 162.5 35.5 q47 0 71.5 -5 q24.5 -5 42.5 -11 l0 -169 q-14 11 -61.5 24 q-47.5 13 -120.5 13 q-53 0 -91.5 -13 q-38.5 -13 -64 -42 q-25.5 -29 -38 -77.5 q-12.5 -48.5 -12.5 -118.5 l0 -154 l297 0 l0 -121 l-297 0 l0 -911 l233 -15 l0 -88 l-579 0 l0 88 Z" /><glyph glyph-name="g" unicode="g" d="M95 -246 q0 50 17 94 q17 44 44 81 q27 37 61 65.5 q34 28.5 67 46.5 q-46 25 -71 66 q-25 41 -25 104 q0 39 12 76 q12 37 33 68.5 q21 31.5 48.5 57 q27.5 25.5 59.5 42.5 q-94 45 -148.5 126 q-54.5 81 -54.5 196 q0 94 39.5 166.5 q39.5 72.5 104 122.5 q64.5 50 146 76 q81.5 26 165.5 26 l1 0 q90 0 168 -20.5 q78 -20.5 137 -64.5 q11 10 33 24.5 q22 14.5 53 28 q31 13.5 68.5 23 q37.5 9.5 79.5 9.5 l67 0 l0 -152 l-233 0 q28 -39 43.5 -88.5 q15.5 -49.5 15.5 -110.5 q0 -93 -36 -168.5 q-36 -75.5 -98 -129.5 q-62 -54 -144.5 -83 q-82.5 -29 -175.5 -29 l-1 0 q-41 0 -79.5 4.5 q-38.5 4.5 -73.5 14.5 q-37 -29 -58.5 -67 q-21.5 -38 -21.5 -76 q0 -40 12 -67 q12 -27 39 -43 q27 -16 70 -23 q43 -7 105 -7 l240 0 q98 0 168.5 -20 q70.5 -20 116 -56.5 q45.5 -36.5 67 -88 q21.5 -51.5 21.5 -115.5 q0 -84 -46.5 -159 q-46.5 -75 -127 -132 q-80.5 -57 -189.5 -90.5 q-109 -33.5 -235 -33.5 l-1 0 q-134 0 -226 22.5 q-92 22.5 -149 63 q-57 40.5 -82.5 97 q-25.5 56.5 -25.5 123.5 ZM592 508 q134 0 197 73.5 q63 73.5 63 213.5 q0 142 -70 207 q-70 65 -199 65 l-1 0 q-56 0 -105.5 -13 q-49.5 -13 -86.5 -44 q-37 -31 -58 -82.5 q-21 -51.5 -21 -129.5 q0 -61 16 -114 q16 -53 50 -92 q34 -39 87 -61.5 q53 -22.5 127 -22.5 l1 0 ZM261 -213 q0 -56 15.5 -99.5 q15.5 -43.5 53 -73.5 q37.5 -30 100 -46 q62.5 -16 157.5 -16 l2 0 q81 0 158.5 18 q77.5 18 138 52 q60.5 34 98 83 q37.5 49 37.5 111 q0 43 -9 77 q-9 34 -36.5 57.5 q-27.5 23.5 -78 36 q-50.5 12.5 -134.5 12.5 l-254 0 q-42 0 -79 3 q-37 3 -69 11 q-42 -41 -71 -97 q-29 -56 -29 -129 Z" /><glyph glyph-name="h" unicode="h" d="M82 88 l128 15 l0 1446 l-181 18 l0 75 l302 35 l5 0 l39 -27 l0 -486 l-5 -171 q26 23 70.5 52.5 q44.5 29.5 100.5 56 q56 26.5 120 44.5 q64 18 128 18 q97 0 160.5 -28 q63.5 -28 101 -86.5 q37.5 -58.5 52.5 -149.5 q15 -91 15 -217 l0 -579 l150 -16 l0 -88 l-459 0 l0 88 l144 16 l0 580 q0 90 -8.5 156 q-8.5 66 -34 109.5 q-25.5 43.5 -71.5 65 q-46 21.5 -122 21.5 q-44 0 -90.5 -12 q-46.5 -12 -91.5 -31 q-45 -19 -86.5 -43.5 q-41.5 -24.5 -73.5 -48.5 l0 -797 l152 -16 l0 -88 l-445 0 l0 88 Z" /><glyph glyph-name="i" unicode="i" d="M87 88 l180 16 l0 897 l-161 36 l0 92 l281 32 l5 0 l40 -32 l0 -1026 l179 -15 l0 -88 l-524 0 l0 88 ZM316 1372 q-24 0 -43 9.5 q-19 9.5 -32.5 25 q-13.5 15.5 -20.5 36.5 q-7 21 -7 45 q0 26 7.5 50.5 q7.5 24.5 22.5 44 q15 19.5 37.5 31 q22.5 11.5 52.5 11.5 l1 0 q26 0 46 -10.5 q20 -10.5 33.5 -27 q13.5 -16.5 20 -38 q6.5 -21.5 6.5 -42.5 q0 -28 -7.5 -52.5 q-7.5 -24.5 -22.5 -43 q-15 -18.5 -38.5 -29 q-23.5 -10.5 -54.5 -10.5 l-1 0 l0 0 Z" /><glyph glyph-name="j" unicode="j" d="M252 994 l-162 36 l1 99 l283 32 l5 0 l39 -32 l0 -1116 q0 -128 -21 -221 q-21 -93 -61.5 -155 q-40.5 -62 -98.5 -95 q-58 -33 -132 -39 q-8 -1 -25.5 -1 q-17.5 0 -36.5 1 q-19 1 -35 2.5 q-16 1.5 -20 4.5 l-9 85 q16 -2 48 3 q32 5 70 17 q47 15 77.5 53.5 q30.5 38.5 48 96 q17.5 57.5 24.5 130.5 q7 73 7 156 l-2 943 ZM321 1372 q-24 0 -43 9.5 q-19 9.5 -32.5 25 q-13.5 15.5 -20.5 36.5 q-7 21 -7 45 q0 26 7.5 50.5 q7.5 24.5 22.5 44 q15 19.5 37.5 31 q22.5 11.5 52.5 11.5 l1 0 q26 0 46 -10.5 q20 -10.5 33.5 -27 q13.5 -16.5 20 -38 q6.5 -21.5 6.5 -42.5 q0 -28 -7.5 -52.5 q-7.5 -24.5 -22.5 -43 q-15 -18.5 -38.5 -29 q-23.5 -10.5 -54.5 -10.5 l-1 0 l0 0 Z" /><glyph glyph-name="k" unicode="k" d="M73 88 l136 16 l0 1445 l-168 18 l0 75 l293 35 l2 0 l39 -27 l0 -1018 l-5 -129 l509 524 l-155 28 l0 81 l473 0 l0 -81 l-158 -29 l-333 -326 l409 -597 l134 -15 l0 -88 l-469 0 l0 88 l142 17 l-321 504 l-230 -226 l4 -105 l0 -174 l157 -16 l0 -88 l-459 0 l0 88 Z" /><glyph glyph-name="l" unicode="l" d="M80 88 l181 16 l0 1445 l-176 18 l0 75 l301 36 l1 0 l40 -28 l0 -1547 l191 -15 l0 -88 l-538 0 l0 88 Z" /><glyph glyph-name="m" unicode="m" d="M91 88 l131 16 l0 897 l-159 36 l0 92 l261 32 l5 0 l40 -32 l0 -91 l-2 -51 q33 29 83 60.5 q50 31.5 107 57.5 q57 26 117 42.5 q60 16.5 115 16.5 q110 0 176 -37 q66 -37 101 -115 q28 23 75 50 q47 27 103.5 49.5 q56.5 22.5 116.5 37.5 q60 15 115 15 q97 0 161 -28 q64 -28 101 -86.5 q37 -58.5 52 -149 q15 -90.5 15 -214.5 l0 -582 l155 -16 l0 -88 l-458 0 l0 88 l138 16 l0 576 q0 88 -9 155 q-9 67 -35.5 112 q-26.5 45 -74.5 68 q-48 23 -126 23 q-41 0 -83 -10 q-42 -10 -82 -26 q-40 -16 -75.5 -35.5 q-35.5 -19.5 -61.5 -38.5 q11 -50 16 -111 q5 -61 5 -134 l0 -579 l155 -16 l0 -88 l-468 0 l0 88 l148 16 l0 580 q0 89 -7.5 155 q-7.5 66 -31.5 110 q-24 44 -68.5 65.5 q-44.5 21.5 -118.5 21.5 q-43 0 -89 -12 q-46 -12 -90.5 -31 q-44.5 -19 -85 -43.5 q-40.5 -24.5 -71.5 -48.5 l0 -797 l145 -16 l0 -88 l-441 0 l0 88 Z" /><glyph glyph-name="n" unicode="n" d="M84 88 l138 16 l0 897 l-159 36 l0 92 l261 32 l5 0 l40 -32 l0 -91 l-2 -51 q33 29 83.5 60.5 q50.5 31.5 108.5 57.5 q58 26 120.5 42.5 q62.5 16.5 119.5 16.5 q99 0 162.5 -29 q63.5 -29 100 -88.5 q36.5 -59.5 50.5 -150 q14 -90.5 14 -213.5 l0 -580 l154 -15 l0 -88 l-460 0 l0 88 l141 15 l0 581 q0 89 -8.5 155.5 q-8.5 66.5 -33.5 110 q-25 43.5 -70.5 65 q-45.5 21.5 -119.5 21.5 q-44 0 -91 -12 q-47 -12 -92.5 -31.5 q-45.5 -19.5 -86.5 -44 q-41 -24.5 -72 -48.5 l0 -796 l149 -16 l0 -88 l-452 0 l0 88 Z" /><glyph glyph-name="o" unicode="o" d="M93 576 q0 139 45.5 249 q45.5 110 119.5 186.5 q74 76.5 168 116.5 q94 40 192 40 q138 0 234.5 -48.5 q96.5 -48.5 157 -130.5 q60.5 -82 88 -190.5 q27.5 -108.5 27.5 -229.5 q0 -140 -45.5 -250 q-45.5 -110 -119.5 -186 q-74 -76 -168.5 -116 q-94.5 -40 -192.5 -40 q-138 0 -234.5 48.5 q-96.5 48.5 -156.5 130.5 q-60 82 -87.5 190.5 q-27.5 108.5 -27.5 229.5 ZM608 84 q156 0 243 119.5 q87 119.5 87 354.5 q0 101 -17.5 192.5 q-17.5 91.5 -56.5 160.5 q-39 69 -101.5 109.5 q-62.5 40.5 -152.5 40.5 q-156 0 -243.5 -119.5 q-87.5 -119.5 -87.5 -354.5 q0 -102 18 -193.5 q18 -91.5 57.5 -160.5 q39.5 -69 102 -109 q62.5 -40 151.5 -40 Z" /><glyph glyph-name="p" unicode="p" d="M385 -164 l0 -220 l227 -21 l0 -91 l-549 0 l0 91 l158 20 l0 1386 l-160 36 l0 92 l262 32 l5 0 l37 -32 l0 -125 q27 28 64 57 q37 29 83.5 53 q46.5 24 102 39 q55.5 15 120.5 15 q85 0 166 -32 q81 -32 143.5 -99.5 q62.5 -67.5 100.5 -173.5 q38 -106 38 -253 q0 -132 -41 -247 q-41 -115 -116 -201 q-75 -86 -181.5 -135.5 q-106.5 -49.5 -238.5 -49.5 q-27 0 -58 2.5 q-31 2.5 -61 6.5 q-30 4 -57.5 10 q-27.5 6 -48.5 14 l4 -174 ZM385 144 q7 -12 28 -24.5 q21 -12.5 52 -22.5 q31 -10 69.5 -16.5 q38.5 -6.5 80.5 -6.5 q82 0 152.5 30 q70.5 30 122.5 92.5 q52 62.5 82.5 158 q30.5 95.5 32.5 226.5 q1 123 -26 210 q-27 87 -73.5 143 q-46.5 56 -108 82 q-61.5 26 -130.5 26 q-48 0 -91.5 -11.5 q-43.5 -11.5 -79.5 -28.5 q-36 -17 -64.5 -38.5 q-28.5 -21.5 -46.5 -40.5 l0 -779 Z" /><glyph glyph-name="q" unicode="q" d="M544 -23 q-86 0 -166.5 34 q-80.5 34 -143.5 104 q-63 70 -101 177.5 q-38 107.5 -38 254.5 q0 131 40.5 244.5 q40.5 113.5 116 197 q75.5 83.5 183.5 131.5 q108 48 243 48 q69 0 135.5 -11 q66.5 -11 117.5 -25 l92 30 l1 0 l34 -33 l0 -1520 l144 -21 l0 -84 l-538 0 l0 84 l229 21 l0 343 l6 178 q-27 -27 -63 -54.5 q-36 -27.5 -80.5 -49 q-44.5 -21.5 -97.5 -35.5 q-53 -14 -114 -14 ZM612 97 q50 0 93.5 12.5 q43.5 12.5 79.5 31 q36 18.5 63 39.5 q27 21 44 39 l0 786 q-6 12 -27.5 25 q-21.5 13 -53 23.5 q-31.5 10.5 -70.5 17.5 q-39 7 -79 7 q-82 0 -152 -29.5 q-70 -29.5 -122 -91 q-52 -61.5 -82 -156.5 q-30 -95 -32 -225 q-1 -123 25.5 -213 q26.5 -90 73 -149 q46.5 -59 108.5 -88 q62 -29 131 -29 Z" /><glyph glyph-name="r" unicode="r" d="M101 85 l164 14 l0 902 l-158 36 l0 92 l259 32 l5 0 l39 -32 l0 -72 l-1 -116 l1 0 q6 7 22.5 26 q16.5 19 42.5 44.5 q26 25.5 61 53 q35 27.5 78 50.5 q43 23 93 38 q50 15 107 15 q21 0 35.5 -2.5 q14.5 -2.5 25.5 -6.5 l0 -180 q-7 5 -34 11.5 q-27 6.5 -60 6.5 q-66 0 -120.5 -12 q-54.5 -12 -97.5 -30.5 q-43 -18.5 -76 -39.5 q-33 -21 -56 -39 l0 -776 l272 -16 l0 -84 l-602 0 l0 85 Z" /><glyph glyph-name="s" unicode="s" d="M119 321 l110 0 l31 -159 q10 -16 34.5 -32 q24.5 -16 58 -28.5 q33.5 -12.5 73 -20.5 q39.5 -8 81.5 -8 q69 0 116.5 13.5 q47.5 13.5 77.5 38 q30 24.5 43.5 58.5 q13.5 34 13.5 76 q0 45 -19.5 79 q-19.5 34 -58 63 q-38.5 29 -96.5 54.5 q-58 25.5 -134 53.5 q-80 29 -139.5 63 q-59.5 34 -98.5 77 q-39 43 -58.5 97 q-19.5 54 -19.5 124 q0 68 32 122 q32 54 86 91.5 q54 37.5 126 57.5 q72 20 152 20 q61 0 112 -7.5 q51 -7.5 91 -18 q40 -10.5 68.5 -21 q28.5 -10.5 44.5 -16.5 l0 -243 l-101 0 l-36 148 q-7 13 -25.5 25 q-18.5 12 -44.5 20.5 q-26 8.5 -58 13.5 q-32 5 -66 5 q-50 1 -92 -10.5 q-42 -11.5 -72 -32.5 q-30 -21 -47 -51.5 q-17 -30.5 -17 -67.5 q0 -59 23 -97.5 q23 -38.5 61.5 -65.5 q38.5 -27 87 -47 q48.5 -20 99.5 -41 q68 -27 131.5 -56.5 q63.5 -29.5 113 -69.5 q49.5 -40 79 -94 q29.5 -54 29.5 -131 q0 -77 -30.5 -137.5 q-30.5 -60.5 -86.5 -102.5 q-56 -42 -134 -64 q-78 -22 -173 -22 q-47 0 -101.5 8.5 q-54.5 8.5 -105.5 21.5 q-51 13 -93.5 28 q-42.5 15 -67.5 29 l0 257 Z" /><glyph glyph-name="t" unicode="t" d="M227 1015 l-155 0 l0 81 q13 3 31 7 q18 4 35.5 8.5 q17.5 4.5 32 8.5 q14.5 4 20.5 8 q16 10 26.5 25 q10.5 15 18.5 39 q6 18 15.5 51.5 q9.5 33.5 19 70 q9.5 36.5 17 68.5 q7.5 32 10.5 46 l95 0 l0 -292 l363 0 l0 -121 l-363 0 l0 -662 q0 -86 4 -135 q4 -49 17.5 -73.5 q13.5 -24.5 38.5 -30.5 q25 -6 67 -6 l1 0 q31 0 66.5 5 q35.5 5 69 12.5 q33.5 7.5 62 16.5 q28.5 9 45.5 17 l1 0 l26 -77 q-22 -17 -63 -35.5 q-41 -18.5 -89.5 -33.5 q-48.5 -15 -99.5 -25.5 q-51 -10.5 -93 -10.5 l-2 0 q-50 0 -90 10.5 q-40 10.5 -68 37 q-28 26.5 -43.5 70.5 q-15.5 44 -15.5 111 l0 809 Z" /><glyph glyph-name="u" unicode="u" d="M201 1024 l-121 35 l0 76 l248 26 l1 0 l37 -24 l0 -691 q0 -91 9 -156 q9 -65 34.5 -106.5 q25.5 -41.5 70.5 -61 q45 -19.5 116 -19.5 q50 0 96.5 12.5 q46.5 12.5 87 32 q40.5 19.5 73.5 42.5 q33 23 57 43 l0 790 l-157 36 l0 76 l274 26 l2 0 l46 -24 l0 -1047 l127 0 l-1 -78 q-35 -10 -75.5 -20.5 q-40.5 -10.5 -94.5 -10.5 q-50 0 -77 17 q-27 17 -27 70 l0 80 q-30 -28 -72.5 -58.5 q-42.5 -30.5 -92 -55.5 q-49.5 -25 -105 -41 q-55.5 -16 -112.5 -16 q-95 0 -160.5 26 q-65.5 26 -106 80 q-40.5 54 -59 138 q-18.5 84 -18.5 201 l0 602 Z" /><glyph glyph-name="v" unicode="v" d="M100 1027 l-96 25 l0 84 l435 0 l0 -84 l-153 -25 l219 -609 l102 -291 l86 280 l218 620 l-144 25 l0 84 l392 0 l0 -84 l-105 -26 l-402 -1043 l-138 0 l-414 1044 Z" /><glyph glyph-name="w" unicode="w" d="M102 1028 l-108 24 l0 84 l444 0 l0 -84 l-163 -24 l182 -637 l68 -284 l67 286 l205 743 l170 0 l205 -742 l66 -289 l73 286 l180 635 l-158 26 l0 84 l401 0 l0 -84 l-113 -25 l-318 -1044 l-167 0 l-222 763 l-58 258 l-50 -258 l-215 -763 l-160 0 l-329 1045 Z" /><glyph glyph-name="x" unicode="x" d="M17 87 l140 17 l363 467 l-350 457 l-121 24 l0 84 l473 0 l0 -84 l-149 -24 l202 -287 l61 -90 l56 89 l216 288 l-158 24 l0 84 l424 0 l0 -84 l-128 -24 l-349 -438 l367 -488 l124 -15 l0 -87 l-486 0 l0 87 l146 17 l-205 302 l-64 92 l-57 -90 l-217 -303 l180 -18 l0 -87 l-468 0 l0 87 Z" /><glyph glyph-name="y" unicode="y" d="M145 -344 q6 -3 18 -5.5 q12 -2.5 26.5 -4 q14.5 -1.5 30 -2.5 q15.5 -1 29.5 -1 q41 0 82.5 11.5 q41.5 11.5 82.5 49 q41 37.5 83 108 q42 70.5 85 188.5 l-90 0 l-391 1027 l-97 25 l0 84 l452 0 l0 -84 l-165 -24 l215 -627 l107 -333 l102 335 l192 625 l-144 24 l0 84 l394 0 l0 -84 l-107 -24 q-61 -187 -108.5 -333 q-47.5 -146 -84.5 -257 q-37 -111 -63.5 -191 q-26.5 -80 -45.5 -135.5 q-19 -55.5 -32 -89.5 q-13 -34 -21 -54 q-48 -119 -90.5 -208.5 q-42.5 -89.5 -93 -149.5 q-50.5 -60 -114 -90 q-63.5 -30 -152.5 -30 q-14 0 -29 1 q-15 1 -28.5 3 q-13.5 2 -25 4.5 q-11.5 2.5 -17.5 5.5 l0 152 l0 0 Z" /><glyph glyph-name="z" unicode="z" d="M712 911 l128 120 l-557 -16 l-30 -192 l-111 0 l0 313 l852 0 l35 -76 l-642 -839 l-130 -117 l612 19 l65 224 l104 -14 l-30 -333 l-907 0 l-37 77 l648 834 Z" /><glyph glyph-name="A" unicode="a" d="M-23 88 l132 19 l510 1430 l168 0 l511 -1430 l134 -19 l0 -88 l-500 0 l0 88 l180 19 l-109 326 l-639 0 l-107 -325 l181 -20 l0 -88 l-461 0 l0 88 ZM967 539 l-230 681 l-57 195 l-56 -201 l-225 -675 l568 0 Z" /><glyph glyph-name="B" unicode="b" d="M103 88 l175 19 l0 1304 l-171 23 l0 88 l256 0 q46 0 87 2.5 q41 2.5 80 5.5 q39 3 76 5.5 q37 2.5 75 2.5 q138 0 234 -23.5 q96 -23.5 156.5 -67.5 q60.5 -44 88 -108 q27.5 -64 27.5 -145 q0 -69 -19 -132 q-19 -63 -57 -114 q-38 -51 -94.5 -87 q-56.5 -36 -131.5 -51 q97 4 173.5 -21 q76.5 -25 129 -72 q52.5 -47 80.5 -114 q28 -67 28 -148 q0 -90 -29.5 -174 q-29.5 -84 -101 -149.5 q-71.5 -65.5 -190 -104.5 q-118.5 -39 -296.5 -39 q-37 0 -70.5 2 q-33.5 2 -70 4 q-36.5 2 -81 4 q-44.5 2 -102.5 2 l-252 0 l0 88 ZM447 846 q23 -2 58 -2.5 q35 -0.5 71 -0.5 q36 0 69.5 0 q33.5 0 53.5 0 q156 0 237.5 80.5 q81.5 80.5 81.5 232.5 q0 71 -18 125 q-18 54 -59.5 90 q-41.5 36 -110 54.5 q-68.5 18.5 -170.5 18.5 q-75 0 -129 -6 q-54 -6 -84 -7 l0 -585 ZM447 103 q19 -6 48 -9.5 q29 -3.5 61 -5.5 q32 -2 64 -2.5 q32 -0.5 58 -0.5 q119 0 202 23.5 q83 23.5 134.5 67.5 q51.5 44 75 106.5 q23.5 62.5 23.5 140.5 q0 82 -21 141.5 q-21 59.5 -66.5 98 q-45.5 38.5 -116 57 q-70.5 18.5 -169.5 18.5 q-28 0 -68.5 0 q-40.5 0 -83 0 q-42.5 0 -80.5 -0.5 q-38 -0.5 -61 -1.5 l0 -633 Z" /><glyph glyph-name="C" unicode="c" d="M74 768 q0 171 56 312.5 q56 141.5 154 243.5 q98 102 231 158 q133 56 288 56 q69 0 135 -8 q66 -8 123 -18.5 q57 -10.5 102 -21.5 q45 -11 72 -17 l-17 -334 l-106 0 l-44 237 q-28 26 -106 44.5 q-78 18.5 -200 18.5 q-104 0 -194.5 -43 q-90.5 -43 -157.5 -126 q-67 -83 -105 -204.5 q-38 -121.5 -38 -279.5 q0 -93 13.5 -181.5 q13.5 -88.5 41 -167.5 q27.5 -79 69 -145.5 q41.5 -66.5 98 -114.5 q56.5 -48 128 -75 q71.5 -27 159.5 -27 q64 0 110 6 q46 6 80 16 q34 10 58.5 24 q24.5 14 44.5 30 l82 193 l100 -15 l-50 -273 q-41 -2 -78.5 -14.5 q-37.5 -12.5 -84.5 -27 q-47 -14.5 -110.5 -26 q-63.5 -11.5 -155.5 -11.5 q-168 0 -298 57 q-130 57 -219 160.5 q-89 103.5 -135 249.5 q-46 146 -46 324 Z" /><glyph glyph-name="D" unicode="d" d="M102 88 l176 19 l0 1304 l-164 23 l0 88 l248 0 q95 0 183 8 q88 8 179 8 q199 0 341.5 -52.5 q142.5 -52.5 233.5 -148.5 q91 -96 133.5 -231 q42.5 -135 42.5 -300 q0 -188 -57.5 -341.5 q-57.5 -153.5 -160 -261.5 q-102.5 -108 -245.5 -165.5 q-143 -57.5 -314 -53.5 q-74 2 -159 9 q-85 7 -174 7 l-263 0 l0 88 ZM447 100 q74 -14 139.5 -16.5 q65.5 -2.5 136.5 -0.5 q124 2 228.5 47.5 q104.5 45.5 180.5 132 q76 86.5 119 214 q43 127.5 43 294.5 q0 669 -622 669 q-70 0 -126.5 -5.5 q-56.5 -5.5 -98.5 -7.5 l0 -1327 Z" /><glyph glyph-name="E" unicode="e" d="M103 88 l175 19 l0 1304 l-171 23 l0 88 l1013 0 l28 -301 l-97 0 l-56 197 l-548 9 l0 -596 l377 6 l25 170 l104 0 l0 -452 l-104 0 l-25 175 l-377 5 l0 -631 l627 17 l104 256 l97 -31 l-63 -346 l-1109 0 l0 88 Z" /><glyph glyph-name="F" unicode="f" d="M111 88 l167 18 l0 1305 l-179 23 l0 88 l1072 0 l21 -337 l-112 0 l-56 233 l-577 9 l0 -606 l409 6 l34 167 l95 0 l0 -453 l-95 0 l-34 173 l-409 8 l0 -615 l320 -19 l0 -88 l-656 0 l0 88 Z" /><glyph glyph-name="G" unicode="g" d="M99 736 q0 128 27 237.5 q27 109.5 77 198.5 q50 89 119.5 157.5 q69.5 68.5 155 115 q85.5 46.5 183.5 70 q98 23.5 205 23.5 q79 0 151.5 -7.5 q72.5 -7.5 133 -18 q60.5 -10.5 106.5 -21.5 q46 -11 72 -17 l-16 -340 l-107 0 l-45 237 q-12 9 -35 20.5 q-23 11.5 -61 22.5 q-38 11 -92 18.5 q-54 7.5 -126 7.5 q-119 0 -220.5 -41 q-101.5 -41 -176 -123 q-74.5 -82 -117 -203.5 q-42.5 -121.5 -42.5 -283.5 q0 -90 14 -178 q14 -88 42.5 -167.5 q28.5 -79.5 71.5 -146.5 q43 -67 101.5 -116.5 q58.5 -49.5 132 -77 q73.5 -27.5 163.5 -27.5 q54 0 106.5 6.5 q52.5 6.5 99 19 q46.5 12.5 85.5 30 q39 17.5 66 38.5 l0 466 l-284 21 l0 108 l582 0 l0 -108 l-126 -21 l0 -554 q-41 -2 -92 -18.5 q-51 -16.5 -117 -36 q-66 -19.5 -148 -35 q-82 -15.5 -185 -15.5 q-167 0 -297.5 58 q-130.5 58 -221 159.5 q-90.5 101.5 -138 240.5 q-47.5 139 -47.5 301 Z" /><glyph glyph-name="H" unicode="h" d="M110 88 l174 19 l0 1304 l-168 23 l0 88 l515 0 l0 -88 l-178 -22 l0 -576 l781 0 l0 575 l-170 23 l0 88 l508 0 l0 -88 l-168 -23 l0 -1304 l168 -19 l0 -88 l-509 0 l0 88 l171 19 l0 621 l-781 0 l0 -622 l179 -18 l0 -88 l-522 0 l0 88 Z" /><glyph glyph-name="I" unicode="i" d="M122 88 l200 19 l0 1304 l-200 23 l0 88 l569 0 l0 -88 l-199 -22 l0 -1305 l199 -20 l0 -87 l-569 0 l0 88 Z" /><glyph glyph-name="J" unicode="j" d="M270 -18 q14 44 22 90 q8 46 12.5 107 q4.5 61 6 142.5 q1.5 81.5 1.5 196.5 l0 892 l-205 24 l0 88 l570 0 l0 -88 l-195 -24 l0 -847 q0 -171 -1.5 -298 q-1.5 -127 -20.5 -222 q-18 -88 -60.5 -156.5 q-42.5 -68.5 -100 -118 q-57.5 -49.5 -124.5 -80 q-67 -30.5 -133 -42.5 l-45 73 q46 12 88 35.5 q42 23.5 78 56.5 q36 33 63.5 76 q27.5 43 43.5 95 Z" /><glyph glyph-name="K" unicode="k" d="M109 88 l175 19 l0 1304 l-171 23 l0 88 l516 0 l0 -88 l-176 -23 l0 -745 l640 746 l-173 22 l0 88 l474 0 l0 -88 l-148 -22 l-472 -527 q51 -45 109 -119 q58 -74 116.5 -159.5 q58.5 -85.5 115 -173 q56.5 -87.5 104.5 -159 q48 -71.5 86 -117.5 q38 -46 59 -49 l96 -23 l0 -85 l-245 0 q-20 0 -46 25 q-26 25 -56.5 68 q-30.5 43 -65 100 q-34.5 57 -71 120 q-36.5 63 -75 129 q-38.5 66 -77 127 q-38.5 61 -76 113.5 q-37.5 52.5 -73.5 89.5 l-222 -252 l0 -413 l193 -22 l0 -85 l-537 0 l0 88 Z" /><glyph glyph-name="L" unicode="l" d="M109 88 l175 19 l0 1304 l-171 23 l0 88 l544 0 l0 -88 l-204 -22 l0 -1305 l583 15 l115 321 l98 -17 l-75 -426 l-1065 0 l0 88 Z" /><glyph glyph-name="M" unicode="m" d="M4 88 l179 19 l162 1305 l-232 22 l0 88 l479 0 l345 -946 l78 -274 l62 274 l297 946 l476 0 l0 -88 l-235 -23 l219 -1303 l183 -20 l0 -88 l-546 0 l0 88 l189 19 l-147 933 l-53 411 l-84 -284 l-337 -1093 l-72 0 l-384 979 l-128 398 l-43 -410 l-93 -934 l202 -19 l0 -88 l-517 0 l0 88 Z" /><glyph glyph-name="N" unicode="n" d="M115 88 l163 20 l0 1303 l-163 23 l0 88 l330 0 l725 -1051 l116 -205 l0 1145 l-180 23 l0 88 l466 0 l0 -88 l-167 -23 l0 -1411 l-106 0 l-733 1054 l-169 274 l0 -1221 l187 -19 l0 -88 l-469 0 l0 88 Z" /><glyph glyph-name="O" unicode="o" d="M722 -23 q-156 -3 -276.5 53 q-120.5 56 -203 158 q-82.5 102 -125 245 q-42.5 143 -42.5 316 q0 181 53 327 q53 146 145.5 248.5 q92.5 102.5 216.5 158 q124 55.5 267 55.5 q156 0 275.5 -54.5 q119.5 -54.5 200.5 -154.5 q81 -100 123 -241 q42 -141 42 -313 q0 -181 -52.5 -327.5 q-52.5 -146.5 -144 -250 q-91.5 -103.5 -214.5 -160.5 q-123 -57 -265 -60 ZM734 74 q105 0 192.5 44 q87.5 44 150.5 132 q63 88 97.5 219 q34.5 131 34.5 305 q0 147 -31 270 q-31 123 -91 211.5 q-60 88.5 -147.5 137.5 q-87.5 49 -199.5 49 q-107 0 -195 -43 q-88 -43 -151 -129 q-63 -86 -97.5 -216 q-34.5 -130 -34.5 -304 q0 -147 31.5 -271 q31.5 -124 91.5 -214 q60 -90 148 -140.5 q88 -50.5 201 -50.5 Z" /><glyph glyph-name="P" unicode="p" d="M109 88 l175 19 l0 1304 l-163 23 l0 88 l248 0 q51 0 88 2.5 q37 2.5 75 5 q38 2.5 83.5 5 q45.5 2.5 112.5 2.5 q150 0 251 -29.5 q101 -29.5 162.5 -85 q61.5 -55.5 87.5 -135.5 q26 -80 26 -182 q0 -124 -45.5 -221.5 q-45.5 -97.5 -124.5 -164.5 q-79 -67 -186 -102.5 q-107 -35.5 -229 -35.5 q-30 0 -65 1 q-35 1 -66.5 2 q-31.5 1 -55 2.5 q-23.5 1.5 -30.5 3.5 l0 -482 l284 -20 l0 -88 l-628 0 l0 88 ZM453 691 q29 -5 86.5 -7 q57.5 -2 133.5 -2 q78 0 150.5 20.5 q72.5 20.5 128.5 69.5 q56 49 89.5 130 q33.5 81 33.5 203 q0 91 -24.5 154.5 q-24.5 63.5 -74 103.5 q-49.5 40 -124.5 57.5 q-75 17.5 -177 17.5 q-74 0 -127 -6.5 q-53 -6.5 -95 -6.5 l0 -734 Z" /><glyph glyph-name="Q" unicode="q" d="M728 -23 q-156 -3 -276.5 53 q-120.5 56 -203 158 q-82.5 102 -125 245 q-42.5 143 -42.5 316 q0 181 53 327 q53 146 145.5 248.5 q92.5 102.5 216.5 158 q124 55.5 267 55.5 q156 0 275.5 -54.5 q119.5 -54.5 200.5 -154.5 q81 -100 123 -241 q42 -141 42 -313 q0 -138 -31 -255.5 q-31 -117.5 -86.5 -212 q-55.5 -94.5 -132.5 -164 q-77 -69.5 -170 -110.5 q74 -5 143 -29.5 q69 -24.5 133.5 -58.5 q64.5 -34 127 -71.5 q62.5 -37.5 125 -69.5 q62.5 -32 125.5 -53 q63 -21 130 -21 l2 0 q14 0 24 0.5 q10 0.5 20 1.5 l20 -85 q-7 -7 -22.5 -17 q-15.5 -10 -36 -19.5 q-20.5 -9.5 -45.5 -16.5 q-25 -7 -51 -7 l-11 0 q-89 0 -164.5 27 q-75.5 27 -143.5 68.5 q-68 41.5 -129.5 91 q-61.5 49.5 -121.5 94.5 q-60 45 -121 79.5 q-61 34.5 -127 45.5 q-32 -8 -65.5 -11.5 q-33.5 -3.5 -67.5 -4.5 ZM740 74 q105 0 192.5 44 q87.5 44 150.5 132 q63 88 97.5 219 q34.5 131 34.5 305 q0 147 -31 270 q-31 123 -91 211.5 q-60 88.5 -147.5 137.5 q-87.5 49 -199.5 49 q-107 0 -195 -43 q-88 -43 -151 -129 q-63 -86 -97.5 -216 q-34.5 -130 -34.5 -304 q0 -147 31.5 -271 q31.5 -124 91.5 -214 q60 -90 148 -140.5 q88 -50.5 201 -50.5 Z" /><glyph glyph-name="R" unicode="r" d="M103 88 l175 18 l0 1308 l-164 23 l0 85 l251 0 q82 0 154.5 8 q72.5 8 148.5 8 q150 0 253.5 -25.5 q103.5 -25.5 168 -75.5 q64.5 -50 93 -125.5 q28.5 -75.5 28.5 -174.5 q0 -72 -21 -141 q-21 -69 -60.5 -126.5 q-39.5 -57.5 -96.5 -100.5 q-57 -43 -130 -64 q39 -26 78.5 -78.5 q39.5 -52.5 79 -117 q39.5 -64.5 77 -133 q37.5 -68.5 72 -126 q34.5 -57.5 65.5 -97 q31 -39.5 56 -45.5 l86 -23 l0 -85 l-239 0 q-19 0 -42 25.5 q-23 25.5 -49 68 q-26 42.5 -54 97.5 q-28 55 -57 114 q-29 59 -59.5 118 q-30.5 59 -61 109.5 q-30.5 50.5 -61 88.5 q-30.5 38 -59.5 54 q-24 0 -66.5 0 q-42.5 0 -87 0.5 q-44.5 0.5 -82 1 q-37.5 0.5 -52.5 0.5 l0 -571 l210 -18 l0 -88 l-554 0 l0 88 ZM447 779 q27 -2 66.5 -2.5 q39.5 -0.5 80 -0.5 q40.5 0 75.5 0 q35 0 54 0 q68 0 124.5 21.5 q56.5 21.5 97 64.5 q40.5 43 62.5 108 q22 65 22 153 q0 68 -17.5 125.5 q-17.5 57.5 -60 99.5 q-42.5 42 -115.5 65.5 q-73 23.5 -184 23.5 q-40 0 -70.5 -2 q-30.5 -2 -54.5 -4 q-24 -2 -43 -4 q-19 -2 -37 -2 l0 -646 Z" /><glyph glyph-name="S" unicode="s" d="M150 437 l105 0 l31 -269 q18 -17 49 -33.5 q31 -16.5 71.5 -29.5 q40.5 -13 88.5 -20.5 q48 -7.5 101 -7.5 q85 0 149 20 q64 20 107 57.5 q43 37.5 65 90 q22 52.5 22 117.5 q0 67 -28.5 117 q-28.5 50 -78 89 q-49.5 39 -116.5 71.5 q-67 32.5 -145 65.5 q-42 18 -89.5 40 q-47.5 22 -94 49.5 q-46.5 27.5 -88.5 62 q-42 34.5 -74.5 78.5 q-32.5 44 -51.5 97.5 q-19 53.5 -19 119.5 q0 87 35.5 158 q35.5 71 99.5 121.5 q64 50.5 152.5 78.5 q88.5 28 194.5 28 q69 0 130 -10 q61 -10 110.5 -23 q49.5 -13 87 -24.5 q37.5 -11.5 60.5 -15.5 l-13 -337 l-101 0 l-38 255 q-11 9 -34 19 q-23 10 -55.5 19 q-32.5 9 -72.5 14.5 q-40 5.5 -83 5.5 q-152 0 -232 -61 q-80 -61 -80 -186 q0 -66 26.5 -113 q26.5 -47 74 -85 q47.5 -38 114 -71.5 q66.5 -33.5 147.5 -71.5 q76 -36 154 -75.5 q78 -39.5 141.5 -91 q63.5 -51.5 103.5 -119 q40 -67.5 40 -159.5 q0 -80 -35.5 -157 q-35.5 -77 -103 -138 q-67.5 -61 -166 -98.5 q-98.5 -37.5 -225.5 -37.5 q-87 0 -159.5 14 q-72.5 14 -130 31 q-57.5 17 -98.5 32 q-41 15 -65 17 l17 366 Z" /><glyph glyph-name="T" unicode="t" d="M336 88 l268 19 l0 1322 l-389 -11 l-66 -417 l-112 0 l34 521 l1248 0 l23 -521 l-110 0 l-57 417 l-394 11 l0 -1322 l292 -19 l0 -88 l-737 0 l0 88 Z" /><glyph glyph-name="U" unicode="u" d="M208 1411 l-152 23 l0 88 l501 0 l0 -88 l-176 -23 l0 -778 q0 -159 30.5 -265 q30.5 -106 85.5 -169.5 q55 -63.5 130.5 -89.5 q75.5 -26 165.5 -26 q196 0 296 136.5 q100 136.5 100 397.5 l0 793 l-169 24 l0 88 l455 0 l0 -88 l-157 -23 l0 -786 q0 -167 -41 -287.5 q-41 -120.5 -113 -199.5 q-72 -79 -171 -116.5 q-99 -37.5 -216 -37.5 q-149 0 -256 40.5 q-107 40.5 -177 123.5 q-70 83 -103 208 q-33 125 -33 295 l0 760 Z" /><glyph glyph-name="V" unicode="v" d="M97 1411 l-127 23 l0 88 l497 0 l0 -88 l-189 -22 l363 -989 l86 -278 l78 283 l314 983 l-164 23 l0 88 l431 0 l0 -88 l-130 -22 l-488 -1428 l-135 0 l-536 1427 Z" /><glyph glyph-name="W" unicode="w" d="M100 1410 l-142 24 l0 88 l515 0 l0 -88 l-201 -23 l298 -972 l67 -325 l80 325 l246 800 l-56 172 l-151 23 l0 88 l532 0 l0 -88 l-203 -23 l289 -972 l80 -348 l67 348 l274 972 l-215 23 l0 88 l485 0 l0 -88 l-138 -23 l-419 -1422 l-159 0 l-331 1072 l-326 -1072 l-149 0 l-443 1421 Z" /><glyph glyph-name="X" unicode="x" d="M15 88 l177 18 l450 665 l-433 639 l-158 24 l0 88 l574 0 l0 -88 l-210 -24 l345 -552 l339 553 l-183 23 l0 88 l489 0 l0 -88 l-161 -24 l-429 -620 l466 -684 l162 -18 l0 -88 l-570 0 l0 88 l200 19 l-372 594 l-358 -595 l210 -18 l0 -88 l-538 0 l0 88 Z" /><glyph glyph-name="Y" unicode="y" d="M354 88 l228 19 l0 478 l-473 825 l-128 24 l0 88 l491 0 l0 -88 l-173 -23 l310 -580 l73 -164 l79 164 l297 580 l-171 23 l0 88 l445 0 l0 -88 l-136 -23 l-442 -824 l0 -479 l233 -20 l0 -88 l-633 0 l0 88 Z" /><glyph glyph-name="Z" unicode="z" d="M903 1286 l116 148 l-650 -21 l-101 -267 l-94 11 l43 371 l965 0 l44 -76 l-802 -1196 l-133 -160 l758 36 l102 322 l98 -21 l-48 -433 l-1066 0 l-48 80 l816 1206 Z" /><glyph glyph-name="period" unicode="." d="M130 93 q0 28 11 53 q11 25 29.5 43 q18.5 18 42.5 28.5 q24 10.5 49 10.5 q29 0 50 -9.5 q21 -9.5 34.5 -25.5 q13.5 -16 20 -37 q6.5 -21 6.5 -43 q0 -30 -11 -55 q-11 -25 -29 -42.5 q-18 -17.5 -42 -27.5 q-24 -10 -50 -10 q-23 0 -43 8 q-20 8 -35 23 q-15 15 -24 36.5 q-9 21.5 -9 47.5 Z" /><glyph glyph-name="comma" unicode="," d="M247 181 q0 49 30 76 q30 27 71 27 l8 0 q31 0 56 -17.5 q25 -17.5 41.5 -50.5 q16.5 -33 25.5 -79.5 q9 -46.5 9 -104.5 q0 -89 -19 -165 q-19 -76 -49.5 -136.5 q-30.5 -60.5 -69 -103.5 q-38.5 -43 -77.5 -65 l-2 0 l-51 40 l0 19 q18 14 39.5 37.5 q21.5 23.5 41 59 q19.5 35.5 32.5 83.5 q13 48 13 111 q0 39 -7.5 66 q-7.5 27 -18.5 47 q-11 20 -23.5 35 q-12.5 15 -23.5 32 q-11 17 -18.5 37.5 q-7.5 20.5 -7.5 51.5 Z" /><glyph glyph-name="question" unicode="?" d="M344 480 q-17 18 -33.5 55 q-16.5 37 -29.5 79.5 q-13 42.5 -22 83.5 q-9 41 -10 68 q0 57 33.5 100 q33.5 43 85 78 q51.5 35 113 66 q61.5 31 118 63.5 q56.5 32.5 100 70.5 q43.5 38 58.5 87 q0 8 0.5 16.5 q0.5 8.5 0.5 16.5 q0 80 -31.5 160 q-31.5 80 -91.5 144.5 q-60 64.5 -148 104.5 q-88 40 -202 40 q-20 0 -41.5 -1 q-21.5 -1 -41.5 -3.5 q-20 -2.5 -37 -5 q-17 -2.5 -28 -5.5 l-27 106 q7 6 30.5 12.5 q23.5 6.5 54 11.5 q30.5 5 65 8 q34.5 3 63.5 3 q105 0 188 -20.5 q83 -20.5 146.5 -57 q63.5 -36.5 108 -85.5 q44.5 -49 72.5 -105.5 q28 -56.5 41 -118.5 q13 -62 13 -123 q0 -78 -29.5 -138 q-29.5 -60 -75.5 -108 q-46 -48 -101.5 -86.5 q-55.5 -38.5 -107.5 -73 q-52 -34.5 -94 -68 q-42 -33.5 -61 -71.5 q-2 -11 -1 -24 q1 -13 3 -27 q2 -35 5 -64.5 q3 -29.5 7 -56 q4 -26.5 9 -51.5 q5 -25 12 -51 l-114 -30 ZM350 75 q-4 24 3 46.5 q7 22.5 21.5 39.5 q14.5 17 33.5 29 q19 12 39 15 q51 7 80.5 -16 q29.5 -23 38.5 -63 q4 -26 -2 -48 q-6 -22 -20 -39 q-14 -17 -33.5 -28 q-19.5 -11 -41.5 -14 q-19 -4 -38 -0.5 q-19 3.5 -35.5 13.5 q-16.5 10 -28.5 26.5 q-12 16.5 -17 38.5 Z" /><glyph glyph-name="exclam" unicode="!" d="M254 1780 l194 0 l-43 -1308 l-104 0 l-47 1308 ZM236 91 q0 28 12 52.5 q12 24.5 31 42.5 q19 18 43 28 q24 10 49 10 q31 0 53 -9 q22 -9 36 -25 q14 -16 20.5 -36.5 q6.5 -20.5 6.5 -42.5 q0 -30 -11.5 -55 q-11.5 -25 -30.5 -42 q-19 -17 -43.5 -26.5 q-24.5 -9.5 -50.5 -9.5 q-23 0 -43.5 8 q-20.5 8 -36.5 22.5 q-16 14.5 -25.5 35.5 q-9.5 21 -9.5 47 Z" /><glyph glyph-name="hyphen" unicode="-" d="M230 678 l825 0 l0 -124 l-825 0 l0 124 Z" /><glyph glyph-name="asterisk" unicode="*" d="M597 958 l30 163 l-121 -112 l-257 -184 l-82 139 l286 137 l155 54 l-155 50 l-288 132 l79 140 l258 -182 l126 -107 l-34 162 l-32 315 l162 0 l-26 -314 l-31 -161 l122 109 l258 184 l80 -137 l-283 -136 l-156 -55 l156 -51 l288 -129 l-82 -143 l-255 181 l-128 107 l34 -162 l34 -315 l-162 -1 l24 316 Z" /><glyph glyph-name="parenleft" unicode="(" d="M150 684 q0 146 29 273.5 q29 127.5 75 234.5 q46 107 102 193 q56 86 111 149 q55 63 102 103 q47 40 74 55 l74 -48 q-21 -14 -58.5 -49.5 q-37.5 -35.5 -81 -92 q-43.5 -56.5 -89 -134 q-45.5 -77.5 -83 -175.5 q-37.5 -98 -62.5 -216.5 q-25 -118.5 -28 -256.5 q-3 -156 19 -289 q22 -133 60 -242.5 q38 -109.5 85.5 -196 q47.5 -86.5 94.5 -150 q47 -63.5 87.5 -103.5 q40.5 -40 64.5 -57 l-83 -54 q-23 14 -68.5 50.5 q-45.5 36.5 -100 97.5 q-54.5 61 -112.5 147.5 q-58 86.5 -105 199 q-47 112.5 -77 252.5 q-30 140 -30 309 Z" /><glyph glyph-name="parenright" unicode=")" d="M716 636 q0 -146 -29 -273.5 q-29 -127.5 -75 -234.5 q-46 -107 -102 -193 q-56 -86 -111 -149 q-55 -63 -102 -103 q-47 -40 -74 -55 l-74 48 q21 14 58.5 49.5 q37.5 35.5 81 92 q43.5 56.5 89 134 q45.5 77.5 83 175.5 q37.5 98 62.5 216.5 q25 118.5 28 256.5 q3 156 -19 289 q-22 133 -60 242.5 q-38 109.5 -85.5 196 q-47.5 86.5 -94.5 150 q-47 63.5 -87.5 103.5 q-40.5 40 -64.5 57 l83 54 q23 -14 68.5 -50.5 q45.5 -36.5 100 -97.5 q54.5 -61 112.5 -147.5 q58 -86.5 105 -199 q47 -112.5 77 -252.5 q30 -140 30 -309 Z" /><glyph glyph-name="ampersand" unicode="&amp;" d="M139 371 q0 70 28 127.5 q28 57.5 72.5 105 q44.5 47.5 99 85.5 q54.5 38 107.5 71 q-35 45 -67.5 97 q-32.5 52 -58 108 q-25.5 56 -41 114 q-15.5 58 -15.5 114 q0 69 29 132 q29 63 80.5 111 q51.5 48 122.5 76 q71 28 154 28 q89 0 154.5 -25.5 q65.5 -25.5 109 -65.5 q43.5 -40 64.5 -90 q21 -50 21 -98 q0 -96 -31 -165.5 q-31 -69.5 -81 -125 q-50 -55.5 -113.5 -102 q-63.5 -46.5 -127.5 -96.5 q36 -44 86 -101.5 q50 -57.5 103 -117 q53 -59.5 104.5 -114 q51.5 -54.5 89.5 -93.5 l56 -55 q36 44 59.5 97 q23.5 53 36 109 q12.5 56 15 110.5 q2.5 54.5 -2.5 101.5 l-168 20 l0 100 l477 0 l0 -100 l-175 -20 q1 -74 -9.5 -144.5 q-10.5 -70.5 -32.5 -134 q-22 -63.5 -53.5 -117.5 q-31.5 -54 -70.5 -95 q33 -31 63.5 -55 q30.5 -24 62 -41.5 q31.5 -17.5 67 -27.5 q35.5 -10 77.5 -13 l0 -74 q-10 -5 -26.5 -9 q-16.5 -4 -34.5 -6.5 q-18 -2.5 -35.5 -3.5 q-17.5 -1 -28.5 -1 q-35 0 -66.5 8 q-31.5 8 -62 24 q-30.5 16 -62.5 40.5 q-32 24.5 -69 56.5 q-45 -38 -95.5 -63.5 q-50.5 -25.5 -101 -41 q-50.5 -15.5 -98 -22 q-47.5 -6.5 -85.5 -6.5 q-118 0 -215 25.5 q-97 25.5 -166.5 75 q-69.5 49.5 -107.5 121.5 q-38 72 -38 166 ZM589 841 q67 52 116 95.5 q49 43.5 81 89.5 q32 46 48 99.5 q16 53.5 16 124.5 q0 29 -8 65 q-8 36 -30.5 67.5 q-22.5 31.5 -62.5 53 q-40 21.5 -104 21.5 q-46 0 -86 -20 q-40 -20 -69.5 -54 q-29.5 -34 -46.5 -79.5 q-17 -45.5 -17 -96.5 q0 -62 16 -116 q16 -54 40 -99.5 q24 -45.5 52.5 -83 q28.5 -37.5 54.5 -67.5 ZM304 387 q0 -60 23 -115 q23 -55 69 -96 q46 -41 115 -65.5 q69 -24.5 162 -24.5 q35 0 74 6 q39 6 78 18 q39 12 76 30.5 q37 18.5 69 44.5 q-51 48 -113 112.5 q-62 64.5 -124.5 134.5 q-62.5 70 -122 138 q-59.5 68 -106.5 122 q-39 -29 -75 -62 q-36 -33 -63.5 -70.5 q-27.5 -37.5 -44.5 -80.5 q-17 -43 -17 -92 Z" /><glyph glyph-name="at" unicode="@" d="M204 371 q0 177 40 333 q40 156 111 286 q71 130 169.5 232 q98.5 102 216 172.5 q117.5 70.5 249.5 108 q132 37.5 271 37.5 q153 0 283 -46.5 q130 -46.5 225 -139.5 q95 -93 148.5 -234 q53.5 -141 53.5 -330 q0 -135 -28.5 -248 q-28.5 -113 -75.5 -203.5 q-47 -90.5 -106 -159 q-59 -68.5 -119.5 -114 q-60.5 -45.5 -117.5 -68.5 q-57 -23 -99 -23 q-26 0 -52 11.5 q-26 11.5 -47 34 q-21 22.5 -35 55.5 q-14 33 -17 76 q-4 48 2 119.5 q6 71.5 25 174.5 q-33 -88 -77.5 -172.5 q-44.5 -84.5 -96.5 -151 q-52 -66.5 -108.5 -107 q-56.5 -40.5 -113.5 -40.5 q-50 0 -99.5 27 q-49.5 27 -89 79 q-39.5 52 -64 126.5 q-24.5 74.5 -24.5 170.5 q0 68 16 144 q16 76 46.5 149.5 q30.5 73.5 75 140.5 q44.5 67 101.5 118 q57 51 126.5 81 q69.5 30 150.5 30 q27 0 58.5 -3.5 q31.5 -3.5 63 -11 q31.5 -7.5 62 -18.5 q30.5 -11 56.5 -26 q3 9 7 18.5 q4 9.5 8.5 17 q4.5 7.5 11 12 q6.5 4.5 14.5 2.5 q25 -8 47.5 -16.5 q22.5 -8.5 51.5 -18.5 q-7 -32 -16 -79.5 q-9 -47.5 -19.5 -104.5 q-10.5 -57 -21.5 -120 q-11 -63 -20 -125.5 q-9 -62.5 -16.5 -122.5 q-7.5 -60 -10.5 -111 q-5 -63 -3.5 -107 q1.5 -44 8 -71 q6.5 -27 17 -39 q10.5 -12 23.5 -12 q36 0 79 20 q43 20 86.5 58.5 q43.5 38.5 83.5 94.5 q40 56 71.5 128 q31.5 72 50 159 q18.5 87 18.5 188 q0 180 -54 307.5 q-54 127.5 -144.5 208.5 q-90.5 81 -208 118 q-117.5 37 -244.5 37 q-113 0 -221 -31.5 q-108 -31.5 -204.5 -92.5 q-96.5 -61 -177.5 -149.5 q-81 -88.5 -139.5 -201.5 q-58.5 -113 -91.5 -250.5 q-33 -137.5 -33 -295.5 q0 -196 48.5 -345 q48.5 -149 135 -249.5 q86.5 -100.5 205 -152 q118.5 -51.5 259.5 -51.5 q55 0 116 7.5 q61 7.5 118 21 q57 13.5 105.5 32 q48.5 18.5 79.5 39.5 l32 -70 q-38 -31 -90 -58 q-52 -27 -114 -46.5 q-62 -19.5 -132 -30.5 q-70 -11 -143 -11 q-182 0 -322 62.5 q-140 62.5 -235.5 177.5 q-95.5 115 -145 278.5 q-49.5 163.5 -49.5 364.5 ZM785 415 q0 -49 8 -101 q8 -52 26 -94.5 q18 -42.5 47 -70 q29 -27.5 71 -27.5 q38 0 84 39.5 q46 39.5 92 106.5 q46 67 89.5 155.5 q43.5 88.5 77.5 186.5 q21 61 37.5 121 q16.5 60 25.5 115 q-15 15 -44.5 28.5 q-29.5 13.5 -64.5 23.5 q-35 10 -70.5 15.5 q-35.5 5.5 -62.5 5.5 q-76 0 -134.5 -43.5 q-58.5 -43.5 -99 -115 q-40.5 -71.5 -61.5 -162 q-21 -90.5 -21 -183.5 Z" /><glyph glyph-name="dollar" unicode="$" d="M225 413 l103 0 l40 -255 q48 -38 125 -60 q77 -22 178 -22 q158 0 243 67.5 q85 67.5 85 206.5 q0 66 -33 116.5 q-33 50.5 -87 93 q-54 42.5 -124.5 80 q-70.5 37.5 -145.5 76.5 q-89 46 -159 91.5 q-70 45.5 -118.5 98.5 q-48.5 53 -74 119 q-25.5 66 -25.5 153 q0 78 32 140 q32 62 86 107 q54 45 126 73 q72 28 152 37 l0 227 l131 0 l0 -224 q60 -3 111 -12.5 q51 -9.5 92 -21 q41 -11.5 71.5 -23.5 q30.5 -12 50.5 -20 l-11 -325 l-99 0 l-47 245 q-34 26 -89.5 44 q-55.5 18 -142.5 17 q-60 0 -115 -13 q-55 -13 -97 -41.5 q-42 -28.5 -67 -74 q-25 -45.5 -25 -110.5 q0 -68 28 -117.5 q28 -49.5 73.5 -89 q45.5 -39.5 104 -72 q58.5 -32.5 118.5 -65.5 q102 -58 185.5 -106.5 q83.5 -48.5 142 -101.5 q58.5 -53 90.5 -117.5 q32 -64.5 32 -154.5 q0 -84 -30 -154.5 q-30 -70.5 -86.5 -122 q-56.5 -51.5 -138.5 -83.5 q-82 -32 -185 -39 l-2 -238 l-129 0 l2 238 q-65 4 -126 15 q-61 11 -112 24.5 q-51 13.5 -90 27 q-39 13.5 -58 22.5 l15 344 Z" /><glyph glyph-name="percent" unicode="%" d="M1304 1538 l134 0 l-656 -1538 l-134 0 l656 1538 ZM471 663 q-82 0 -147.5 33 q-65.5 33 -111.5 89 q-46 56 -71 130.5 q-25 74.5 -25 157.5 q0 102 32 181.5 q32 79.5 86 134 q54 54.5 124 83 q70 28.5 147 28.5 q92 0 159.5 -32.5 q67.5 -32.5 111 -88.5 q43.5 -56 64.5 -131.5 q21 -75.5 21 -162.5 q0 -102 -33 -180.5 q-33 -78.5 -87 -132.5 q-54 -54 -124.5 -81.5 q-70.5 -27.5 -145.5 -27.5 ZM483 762 q51 0 91.5 22 q40.5 22 69.5 62.5 q29 40.5 44.5 99 q15.5 58.5 15.5 131.5 q0 71 -13.5 130.5 q-13.5 59.5 -39.5 102 q-26 42.5 -65.5 66.5 q-39.5 24 -91.5 24 q-51 0 -92 -22 q-41 -22 -69.5 -63.5 q-28.5 -41.5 -43.5 -100.5 q-15 -59 -15 -132 q0 -66 14 -124.5 q14 -58.5 40.5 -102 q26.5 -43.5 65.5 -68.5 q39 -25 89 -25 ZM1224 459 q0 102 32 181.5 q32 79.5 86 133.5 q54 54 124 82.5 q70 28.5 147 28.5 q92 0 159 -32.5 q67 -32.5 110.5 -88.5 q43.5 -56 64.5 -131.5 q21 -75.5 21 -161.5 q0 -102 -33 -180.5 q-33 -78.5 -87 -132.5 q-54 -54 -124.5 -81.5 q-70.5 -27.5 -145.5 -27.5 q-82 0 -147.5 33 q-65.5 33 -111.5 89 q-46 56 -70.5 130.5 q-24.5 74.5 -24.5 157.5 ZM1381 468 q0 -67 14 -125 q14 -58 40.5 -101.5 q26.5 -43.5 65.5 -68.5 q39 -25 89 -25 q51 0 92 22 q41 22 70 62.5 q29 40.5 44.5 99 q15.5 58.5 15.5 131.5 q0 71 -13.5 130.5 q-13.5 59.5 -39.5 102 q-26 42.5 -66 66.5 q-40 24 -92 24 q-51 0 -92 -22.5 q-41 -22.5 -69.5 -63.5 q-28.5 -41 -43.5 -100 q-15 -59 -15 -132 Z" /><glyph glyph-name="plus" unicode="+" d="M219 678 l222 0 l175 -11 l-6 180 l0 228 l133 0 l0 -228 l-8 -180 l151 11 l248 0 l0 -133 l-248 0 l-151 6 l8 -177 l0 -240 l-133 0 l0 240 l6 177 l-175 -6 l-222 0 l0 133 Z" /><glyph glyph-name="equal" unicode="=" d="M210 962 l917 0 l0 -126 l-917 0 l0 126 ZM210 395 l917 0 l0 -126 l-917 0 l0 126 Z" /><glyph glyph-name="slash" unicode="/" d="M651 1599 l153 0 l-573 -1962 l-153 0 l573 1962 Z" /><glyph glyph-name="numbersign" unicode="#" d="M398 364 l-224 0 l0 105 l237 0 l42 452 l-245 0 l0 105 l254 0 l30 347 l136 0 l-30 -347 l371 0 l31 347 l135 0 l-31 -347 l245 0 l0 -105 l-255 0 l-40 -452 l251 0 l0 -105 l-262 0 l-32 -364 l-135 0 l31 364 l-373 0 l-33 -364 l-138 0 l35 364 ZM914 469 l44 452 l-371 0 l-41 -452 l368 0 Z" /><glyph glyph-name="zero" unicode="0" d="M640 -18 q-95 0 -169.5 26 q-74.5 26 -131 72.5 q-56.5 46.5 -96.5 110 q-40 63.5 -64.5 138.5 q-24.5 75 -35.5 158 q-11 83 -10 168 q1 145 44.5 262.5 q43.5 117.5 116 200.5 q72.5 83 169 128.5 q96.5 45.5 204.5 45.5 q145 0 242 -51.5 q97 -51.5 154.5 -140 q57.5 -88.5 81 -206.5 q23.5 -118 22.5 -251 q-1 -142 -41 -263 q-40 -121 -110.5 -209.5 q-70.5 -88.5 -166.5 -138.5 q-96 -50 -209 -50 ZM648 75 q92 0 156.5 40.5 q64.5 40.5 105 114 q40.5 73.5 59 177 q18.5 103.5 18.5 228.5 q0 117 -16 219.5 q-16 102.5 -54.5 179 q-38.5 76.5 -102.5 121 q-64 44.5 -159 44.5 q-91 0 -156 -38.5 q-65 -38.5 -106.5 -108.5 q-41.5 -70 -61 -169 q-19.5 -99 -19.5 -219 q0 -74 7.5 -146.5 q7.5 -72.5 24 -138 q16.5 -65.5 42.5 -121.5 q26 -56 63.5 -96.5 q37.5 -40.5 86.5 -63.5 q49 -23 112 -23 Z" /><glyph glyph-name="one" unicode="1" d="M123 88 l274 16 l0 988 q-21 -10 -57 -22 q-36 -12 -77.5 -23.5 q-41.5 -11.5 -84 -21 q-42.5 -9.5 -75.5 -13.5 l-22 96 q52 12 105 31 q53 19 102.5 44 q49.5 25 94 53.5 q44.5 28.5 80.5 59.5 l1 0 l99 -21 l0 -1171 l268 -16 l0 -88 l-708 0 l0 88 Z" /><glyph glyph-name="two" unicode="2" d="M106 70 q95 52 185 115.5 q90 63.5 170 133.5 q80 70 147 145.5 q67 75.5 115 151 q48 75.5 75 149.5 q27 74 27 142 q0 59 -17.5 107.5 q-17.5 48.5 -52 83.5 q-34.5 35 -86.5 54.5 q-52 19.5 -120 19.5 q-70 0 -128 -17.5 q-58 -17.5 -105 -43 q-47 -25.5 -82.5 -55.5 q-35.5 -30 -60.5 -54 l-58 78 q31 34 78.5 72 q47.5 38 108.5 70.5 q61 32.5 134.5 53.5 q73.5 21 156.5 21 q110 0 190 -32 q80 -32 131.5 -84 q51.5 -52 76.5 -119.5 q25 -67.5 25 -137.5 q0 -74 -26.5 -149.5 q-26.5 -75.5 -73.5 -150 q-47 -74.5 -112 -146.5 q-65 -72 -141.5 -139.5 q-76.5 -67.5 -162.5 -128.5 q-86 -61 -175 -113 l663 42 l66 178 l91 -19 l-49 -298 l-964 0 l-26 70 l0 0 Z" /><glyph glyph-name="three" unicode="3" d="M136 -216 q16 -5 35.5 -7.5 q19.5 -2.5 39 -4.5 q19.5 -2 38 -2.5 q18.5 -0.5 32.5 -0.5 q134 0 238 32.5 q104 32.5 175.5 87.5 q71.5 55 108.5 127.5 q37 72.5 37 152.5 q0 70 -21 126 q-21 56 -66 96 q-45 40 -115 62 q-70 22 -167 24 q-6 -2 -25.5 -7.5 q-19.5 -5.5 -42 -11.5 q-22.5 -6 -42 -11 q-19.5 -5 -24.5 -6 l-30 98 q41 7 81 18.5 q40 11.5 78 27.5 q64 27 119.5 64.5 q55.5 37.5 97 83 q41.5 45.5 66 98 q24.5 52.5 24.5 108.5 q1 66 -20.5 111.5 q-21.5 45.5 -57.5 73.5 q-36 28 -84 40.5 q-48 12.5 -100 12.5 q-49 0 -96.5 -9.5 q-47.5 -9.5 -90.5 -26 q-43 -16.5 -80.5 -37.5 q-37.5 -21 -66.5 -45 l-46 74 q23 22 65.5 50.5 q42.5 28.5 98.5 54 q56 25.5 122.5 42.5 q66.5 17 137.5 17 q83 0 156 -18 q73 -18 127.5 -57 q54.5 -39 86 -101 q31.5 -62 31.5 -150 q0 -75 -33.5 -144 q-33.5 -69 -87.5 -127 q-54 -58 -122.5 -101.5 q-68.5 -43.5 -139.5 -67.5 q106 9 190.5 -14.5 q84.5 -23.5 143.5 -70.5 q59 -47 90.5 -112 q31.5 -65 32.5 -137 q1 -116 -50.5 -212.5 q-51.5 -96.5 -146 -166.5 q-94.5 -70 -228.5 -109 q-134 -39 -298 -39 q-19 0 -41 1.5 q-22 1.5 -44.5 3.5 q-22.5 2 -44.5 5.5 q-22 3.5 -41 7.5 l0 96 l0 0 Z" /><glyph glyph-name="four" unicode="4" d="M85 81 q48 90 101.5 196 q53.5 106 110 220.5 q56.5 114.5 113 233 q56.5 118.5 111 234 q54.5 115.5 104.5 224 q50 108.5 92 202.5 l48 0 l121 -67 l-573 -1109 l-78 -120 l575 27 l1 410 l146 13 l0 -416 l303 15 l0 -144 l-303 0 l0 -330 l-147 0 l0 330 l-681 0 l-44 81 l0 0 Z" /><glyph glyph-name="five" unicode="5" d="M199 -237 q29 -4 61.5 -5.5 q32.5 -1.5 60.5 -1.5 q113 0 211.5 34 q98.5 34 172 96.5 q73.5 62.5 115.5 150.5 q42 88 42 196 q0 96 -23 164 q-23 68 -65 111 q-42 43 -101 62.5 q-59 19.5 -131 19.5 q-35 0 -74.5 -5.5 q-39.5 -5.5 -79.5 -14.5 q-40 -9 -78 -21.5 q-38 -12.5 -69 -27.5 l-46 35 l102 723 l550 0 l21 39 l119 0 l-32 -181 l-534 0 l-97 -511 q25 15 60.5 28 q35.5 13 76 22.5 q40.5 9.5 84.5 15.5 q44 6 87 6 q92 0 168.5 -26.5 q76.5 -26.5 132 -81.5 q55.5 -55 86 -138 q30.5 -83 30.5 -197 q0 -111 -49.5 -216 q-49.5 -105 -141 -187 q-91.5 -82 -223 -132 q-131.5 -50 -294.5 -50 q-34 0 -71 3 q-37 3 -72 11 l1 79 l0 0 Z" /><glyph glyph-name="six" unicode="6" d="M166 591 q0 134 34 256 q34 122 93 229 q59 107 139.5 196.5 q80.5 89.5 173.5 158.5 q93 69 194 114.5 q101 45.5 202 64.5 l38 -76 q-131 -41 -239.5 -111.5 q-108.5 -70.5 -192.5 -161.5 q-84 -91 -142 -197 q-58 -106 -87 -219 q23 29 58 57.5 q35 28.5 81.5 51.5 q46.5 23 104.5 37 q58 14 126 14 q111 0 194 -33 q83 -33 138.5 -94.5 q55.5 -61.5 83 -148.5 q27.5 -87 27.5 -194 q0 -108 -34 -209 q-34 -101 -99 -178 q-65 -77 -159.5 -123.5 q-94.5 -46.5 -216.5 -46.5 q-127 0 -223.5 49.5 q-96.5 49.5 -162 133.5 q-65.5 84 -98.5 195.5 q-33 111.5 -33 234.5 ZM694 69 q83 0 143 38.5 q60 38.5 99 99.5 q39 61 57.5 136 q18.5 75 18.5 148 q0 111 -22.5 188 q-22.5 77 -63 125 q-40.5 48 -95.5 69.5 q-55 21.5 -121 21.5 q-70 0 -129 -18.5 q-59 -18.5 -105 -46 q-46 -27.5 -76.5 -59.5 q-30.5 -32 -43.5 -58 q-3 -29 -3 -57 q-3 -108 11 -213 q14 -105 53 -188.5 q39 -83.5 106 -134.5 q67 -51 171 -51 Z" /><glyph glyph-name="seven" unicode="7" d="M346 -295 q75 167 150 346.5 q75 179.5 149 364 q74 184.5 146.5 369.5 q72.5 185 144.5 363 l-648 -6 l-70 -256 l-109 19 l41 374 l905 0 l35 -44 q-1 -3 -17.5 -48.5 q-16.5 -45.5 -43.5 -121.5 q-27 -76 -62.5 -176 q-35.5 -100 -75.5 -212.5 q-40 -112.5 -82.5 -231 q-42.5 -118.5 -82.5 -231 q-40 -112.5 -75.5 -213 q-35.5 -100.5 -62.5 -176.5 q-27 -76 -43.5 -121.5 q-16.5 -45.5 -17.5 -48.5 l-181 50 l0 0 Z" /><glyph glyph-name="eight" unicode="8" d="M147 376 q0 59 19 117 q19 58 58.5 111 q39.5 53 100.5 100.5 q61 47.5 144 85.5 q-53 33 -100 71 q-47 38 -82 85 q-35 47 -55.5 104.5 q-20.5 57.5 -20.5 129.5 q0 93 38.5 164 q38.5 71 101 119 q62.5 48 143 72 q80.5 24 164.5 24 q92 0 170 -23.5 q78 -23.5 135 -67.5 q57 -44 89 -106.5 q32 -62.5 32 -140.5 q0 -61 -19.5 -119 q-19.5 -58 -55.5 -111.5 q-36 -53.5 -88 -100.5 q-52 -47 -117 -86 q67 -37 129 -77.5 q62 -40.5 109.5 -89.5 q47.5 -49 76 -108.5 q28.5 -59.5 28.5 -134.5 q0 -95 -43 -171.5 q-43 -76.5 -114 -130 q-71 -53.5 -162 -82 q-91 -28.5 -186 -28.5 q-87 0 -175 21.5 q-88 21.5 -159 68.5 q-71 47 -116 122 q-45 75 -45 182 ZM715 853 q49 25 90.5 59.5 q41.5 34.5 71 76 q29.5 41.5 46 88.5 q16.5 47 16.5 97 q0 71 -21 127 q-21 56 -59 94.5 q-38 38.5 -91.5 59 q-53.5 20.5 -117.5 20.5 q-60 0 -113.5 -18 q-53.5 -18 -93 -51 q-39.5 -33 -63 -81 q-23.5 -48 -23.5 -108 q0 -64 30 -115 q30 -51 79.5 -94 q49.5 -43 114.5 -80.5 q65 -37.5 134 -74.5 ZM309 412 q0 -79 24.5 -142 q24.5 -63 70.5 -107.5 q46 -44.5 110.5 -68 q64.5 -23.5 145.5 -23.5 q58 0 115 20.5 q57 20.5 102 58 q45 37.5 73 90 q28 52.5 28 116.5 q0 73 -37.5 127 q-37.5 54 -98.5 98 q-61 44 -137 82.5 q-76 38.5 -153 79.5 q-51 -24 -95.5 -58.5 q-44.5 -34.5 -77.5 -77 q-33 -42.5 -51.5 -92 q-18.5 -49.5 -18.5 -103.5 Z" /><glyph glyph-name="nine" unicode="9" d="M370 -262 q129 43 232.5 113 q103.5 70 180.5 160.5 q77 90.5 128 197 q51 106.5 77 222.5 q-24 -30 -59.5 -59.5 q-35.5 -29.5 -79.5 -52 q-44 -22.5 -96 -36.5 q-52 -14 -109 -14 q-111 0 -199 35 q-88 35 -149 99.5 q-61 64.5 -93.5 155.5 q-32.5 91 -32.5 203 q0 105 35 201.5 q35 96.5 102 171 q67 74.5 163 118.5 q96 44 218 44 q132 0 229 -47.5 q97 -47.5 160 -128.5 q63 -81 93.5 -189 q30.5 -108 30.5 -229 q0 -140 -30.5 -266 q-30.5 -126 -84.5 -235 q-54 -109 -128.5 -200 q-74.5 -91 -162.5 -160.5 q-88 -69.5 -186 -115.5 q-98 -46 -199 -66 l-40 78 ZM660 375 q69 0 127.5 19.5 q58.5 19.5 103.5 48 q45 28.5 75.5 62 q30.5 33.5 43.5 62.5 q2 18 2.5 36 q0.5 18 1.5 36 q2 70 -2.5 139.5 q-4.5 69.5 -18.5 132.5 q-14 63 -38.5 116.5 q-24.5 53.5 -63 93 q-38.5 39.5 -91.5 62 q-53 22.5 -124 22.5 q-83 0 -144.5 -37 q-61.5 -37 -102 -95.5 q-40.5 -58.5 -60 -131 q-19.5 -72.5 -19.5 -143.5 q0 -115 23.5 -195.5 q23.5 -80.5 65 -131 q41.5 -50.5 98.5 -73.5 q57 -23 123 -23 Z" /></font>
</defs>
</svg>
